<?xml version="1.0" standalone="no"?>
<!DOCTYPE svg PUBLIC "-//W3C//DTD SVG 20010904//EN"
 "http://www.w3.org/TR/2001/REC-SVG-20010904/DTD/svg10.dtd">
<svg version="1.0" xmlns="http://www.w3.org/2000/svg"
 width="512.000000pt" height="512.000000pt" viewBox="0 0 512.000000 512.000000"
 preserveAspectRatio="xMidYMid meet">
<metadata>
Created by potrace 1.14, written by Peter Selinger 2001-2017
</metadata>
<g transform="translate(0.000000,512.000000) scale(0.100000,-0.100000)"
fill="#000000" stroke="none">
<path d="M0 2560 l0 -2560 2560 0 2560 0 0 2560 0 2560 -2560 0 -2560 0 0
-2560z m1895 1377 c193 -51 408 -181 526 -318 221 -258 329 -579 329 -979 0
-339 -77 -618 -236 -857 -131 -196 -335 -352 -554 -421 -234 -75 -548 -69
-767 14 -37 13 -70 21 -73 17 -4 -5 -55 -72 -114 -151 l-107 -142 -174 0 -175
0 169 223 169 223 -84 86 c-211 219 -322 484 -355 849 -20 224 8 496 70 685
120 369 374 638 705 749 130 44 215 55 401 51 144 -3 185 -7 270 -29z m1922
-8 c366 -41 605 -225 695 -536 20 -68 23 -101 23 -248 0 -194 -11 -248 -75
-380 -67 -138 -171 -241 -317 -311 -43 -21 -80 -39 -82 -41 -2 -1 127 -239
288 -527 160 -289 291 -527 291 -531 0 -3 -82 -5 -182 -5 l-183 0 -275 505
-275 504 -322 1 -323 0 0 -505 0 -505 -160 0 -160 0 0 1288 c0 709 3 1292 7
1295 11 11 946 8 1050 -4z"/>
<path d="M1445 3666 c-158 -32 -279 -93 -387 -194 -224 -211 -322 -503 -304
-907 3 -82 13 -184 21 -225 40 -200 135 -389 252 -502 l48 -46 135 178 135
179 173 0 c94 1 172 -1 172 -4 0 -2 -83 -112 -185 -244 -102 -132 -185 -245
-185 -250 0 -5 35 -18 78 -28 114 -27 311 -24 416 6 330 93 552 370 610 763
20 135 20 361 0 497 -57 390 -288 678 -611 762 -102 26 -274 33 -368 15z"/>
<path d="M3080 3149 l0 -511 363 5 c291 4 375 8 426 21 199 51 316 170 352
360 23 121 0 295 -51 397 -34 66 -111 136 -193 174 -117 56 -201 65 -573 65
l-324 0 0 -511z"/>
</g>
</svg>
